<?xml version="1.0" encoding="UTF-8"?>
<svg id="Layer_1" xmlns="http://www.w3.org/2000/svg" viewBox="0 0 303.79 91.31">
  <defs>
    <style>
      .cls-1 {
        fill: #f2737b;
      }
    </style>
  </defs>
  <path class="cls-1" d="M47.5,74.19c-15.73,0-28.53-12.8-28.53-28.53s12.8-28.53,28.53-28.53,28.53,12.8,28.53,28.53-12.8,28.53-28.53,28.53ZM47.5,27.13c-10.22,0-18.53,8.31-18.53,18.53s8.31,18.53,18.53,18.53,18.53-8.31,18.53-18.53-8.31-18.53-18.53-18.53Z"/>
  <path class="cls-1" d="M109.97,74.19c-15.73,0-28.53-12.8-28.53-28.53s12.8-28.53,28.53-28.53,28.53,12.8,28.53,28.53-12.8,28.53-28.53,28.53ZM109.97,27.13c-10.22,0-18.53,8.31-18.53,18.53s8.31,18.53,18.53,18.53,18.53-8.31,18.53-18.53-8.31-18.53-18.53-18.53Z"/>
  <path class="cls-1" d="M172.44,74.19c-15.73,0-28.53-12.8-28.53-28.53s12.8-28.53,28.53-28.53,28.53,12.8,28.53,28.53-12.8,28.53-28.53,28.53ZM172.44,27.13c-10.22,0-18.53,8.31-18.53,18.53s8.31,18.53,18.53,18.53,18.53-8.31,18.53-18.53-8.31-18.53-18.53-18.53Z"/>
  <path class="cls-1" d="M256.11,74.64c-15.73,0-28.53-12.8-28.53-28.53s12.8-28.53,28.53-28.53,28.53,12.8,28.53,28.53-12.8,28.53-28.53,28.53ZM256.11,27.58c-10.22,0-18.53,8.31-18.53,18.53s8.31,18.53,18.53,18.53,18.53-8.31,18.53-18.53-8.31-18.53-18.53-18.53Z"/>
  <path class="cls-1" d="M23.97,91.31c-2.76,0-5-2.24-5-5v-40.66c0-2.76,2.24-5,5-5s5,2.24,5,5v40.66c0,2.76-2.24,5-5,5Z"/>
  <path class="cls-1" d="M86.44,91.31c-2.76,0-5-2.24-5-5v-40.66c0-2.76,2.24-5,5-5s5,2.24,5,5v40.66c0,2.76-2.24,5-5,5Z"/>
  <path class="cls-1" d="M117.21,91.31c-1.28,0-2.56-.49-3.54-1.46l-23.3-23.3c-1.95-1.95-1.95-5.12,0-7.07,1.95-1.95,5.12-1.95,7.07,0l23.3,23.3c1.95,1.95,1.95,5.12,0,7.07-.98.98-2.26,1.46-3.54,1.46Z"/>
  <path class="cls-1" d="M213.6,74.19c-2.76,0-5-2.24-5-5V5c0-2.76,2.24-5,5-5s5,2.24,5,5v64.19c0,2.76-2.24,5-5,5Z"/>
  <path class="cls-1" d="M258.13,91.31h-123.03c-2.76,0-5-2.24-5-5s2.24-5,5-5h123.03c19.66,0,35.66-16,35.66-35.66s-16-35.66-35.66-35.66c-2.76,0-5-2.24-5-5s2.24-5,5-5c25.17,0,45.66,20.48,45.66,45.66s-20.48,45.66-45.66,45.66Z"/>
  <path class="cls-1" d="M5,50.66c-2.76,0-5-2.24-5-5C0,20.48,20.48,0,45.66,0h191.61c2.76,0,5,2.24,5,5s-2.24,5-5,5H45.66c-19.66,0-35.66,16-35.66,35.66,0,2.76-2.24,5-5,5Z"/>
</svg>